<?xml version="1.0" encoding="utf-8"?>
<!-- Generator: Adobe Illustrator 21.0.0, SVG Export Plug-In . SVG Version: 6.00 Build 0)  -->
<svg version="1.1" id="Vrstva_1" xmlns="http://www.w3.org/2000/svg" xmlns:xlink="http://www.w3.org/1999/xlink" x="0px" y="0px"
	 viewBox="0 0 224.3 83.9" style="enable-background:new 0 0 224.3 83.9;" xml:space="preserve">
<style type="text/css">
	.st0{fill:#5A5A5A;}
	.st1{fill:#0068A2;}
</style>
<g id="cesnet">
	<g>
		<g>
			<path class="st0" d="M224.3,17.8v-8h-9.5V0h-9.7v9.8h-6.7v8h6.7v17.6c0,1.9,0.2,3.6,0.5,5.2s1,3.1,1.9,4.4s2.2,2.3,3.8,3
				s3.7,1.1,6.3,1.1c1.1,0,2.2-0.1,3.4-0.3c1.2-0.2,2.2-0.4,3-0.8h0.1l-0.3-7.8l-0.2,0.1c-0.6,0.3-1.2,0.5-1.9,0.6
				c-0.7,0.1-1.4,0.2-2,0.2c-2,0-3.4-0.5-3.9-1.6c-0.6-1.1-0.9-2.5-0.9-4.1V17.8H224.3z"/>
			<path class="st0" d="M46.2,25c0.2-2.5,1.3-4.7,3.2-6.3c1.9-1.7,4.3-2.5,7.1-2.5c1.5,0,2.8,0.2,3.9,0.7s2,1.2,2.8,2
				c0.7,0.8,1.3,1.8,1.6,2.9c0.3,1,0.5,2.1,0.5,3.3H46.2V25z M69.9,13.9c-1.7-1.7-3.6-3.1-5.9-3.9c-2.3-0.9-4.8-1.3-7.4-1.3
				c-2.9,0-5.6,0.5-8,1.5c-2.5,1-4.6,2.4-6.4,4.2s-3.2,4-4.3,6.5c-1,2.5-1.6,5.4-1.6,8.4c0,3.1,0.5,6,1.6,8.4c1,2.5,2.5,4.6,4.3,6.3
				c1.8,1.7,4,3,6.5,4c2.5,0.9,5.3,1.4,8.2,1.4c7.2,0,12.7-2.6,16.5-7.7l0.1-0.1l-6.6-5.3l-0.1,0.2c-1,1.5-2.4,2.7-4,3.6
				c-1.6,0.9-3.6,1.3-5.9,1.3c-1.3,0-2.7-0.2-3.9-0.7c-1.2-0.5-2.4-1.1-3.4-1.9s-1.8-1.8-2.4-2.9s-0.9-2.2-1-3.5h28.9v-0.2
				c0.1-0.4,0.1-0.9,0.1-1.3v-1.3c0-3.4-0.5-6.5-1.4-9.1C72.9,17.8,71.6,15.7,69.9,13.9"/>
			<path class="st0" d="M12.8,20.8c0.9-1.1,1.9-2.1,3.2-2.8s2.8-1.1,4.5-1.1c1.5,0,3,0.4,4.4,1.1c1.4,0.7,2.5,1.6,3.3,2.6l0.1,0.2
				L35,15l0.1-0.1L35,14.8c-1.5-1.9-3.7-3.4-6.3-4.4c-2.6-1.1-5.4-1.6-8.2-1.6s-5.5,0.5-8,1.4c-2.5,1-4.7,2.3-6.5,4.1
				c-1.9,1.8-3.4,3.9-4.4,6.4C0.5,23.2,0,26,0,29.1c0,3.2,0.6,6.1,1.6,8.6c1.1,2.5,2.6,4.6,4.5,6.4s4.1,3.1,6.6,4s5.2,1.4,8,1.4
				c2.9,0,5.6-0.5,8-1.4c2.5-0.9,4.5-2.3,6.1-4l0.1-0.1l-6.1-6.2l-0.1-0.1l-0.1,0.2c-0.9,1.1-2.1,1.9-3.5,2.5
				c-1.5,0.6-2.9,0.9-4.4,0.9c-1.8,0-3.3-0.4-4.6-1c-1.3-0.7-2.4-1.6-3.3-2.8c-0.9-1.1-1.6-2.4-2-3.9c-0.3-1.7-0.6-3.1-0.6-4.6
				s0.2-2.9,0.6-4.4C11.3,23.2,11.9,21.9,12.8,20.8"/>
			<path class="st0" d="M148.2,13.5c-1.1-1.4-2.6-2.6-4.4-3.5c-1.8-0.9-4-1.3-6.5-1.3c-2.9,0-5.4,0.7-7.5,2.2c-2,1.4-3.4,3-4.3,4.7
				V9.8h-9.4v38.4h9.9V27.1c0-1.2,0.2-2.5,0.5-3.7c0.4-1.2,0.9-2.3,1.6-3.2c0.7-0.9,1.6-1.7,2.7-2.3c1.1-0.6,2.4-0.9,3.9-0.9
				s2.7,0.3,3.6,0.9c0.9,0.6,1.6,1.4,2.1,2.4s0.9,2,1,3.2c0.2,1.2,0.2,2.4,0.2,3.5v21.3h9.9v-24c0-2-0.3-3.9-0.8-5.8
				C150.2,16.6,149.3,15,148.2,13.5"/>
			<path class="st0" d="M91.9,17.1c1.2-0.6,2.6-0.9,4.1-0.9c1.7,0,3.3,0.4,4.8,1.2s2.6,1.8,3.4,2.8l0.1,0.2l6.5-5.7l-0.1-0.1
				c-1.5-2-3.7-3.5-6.3-4.4c-2.6-1-5.4-1.4-8.1-1.4c-1.9,0-3.8,0.2-5.6,0.7s-3.5,1.2-4.9,2.2c-1.4,1-2.6,2.3-3.5,3.8
				c-0.9,1.6-1.3,3.4-1.3,5.6c0,1.8,0.3,3.4,1,4.6c0.6,1.2,1.5,2.3,2.6,3.1c1.1,0.8,2.3,1.5,3.7,2c1.3,0.5,2.8,0.9,4.2,1.2
				c2.9,0.7,5.1,1.4,6.5,2.1s2.1,1.7,2.1,3.2c0,0.8-0.2,1.5-0.5,2c-0.4,0.6-0.8,1-1.4,1.3c-0.6,0.3-1.2,0.6-1.9,0.7
				c-0.7,0.2-1.4,0.2-2.1,0.2c-2,0-3.9-0.4-5.6-1.3c-1.7-0.9-3-2-4.1-3.4l-0.1-0.2l-6.5,6.1l0.1,0.1c1.9,2,4.2,3.6,7,4.7
				s5.7,1.6,8.7,1.6c2.1,0,4.1-0.2,6-0.7s3.7-1.2,5.1-2.2c1.5-1,2.7-2.4,3.5-4c0.9-1.6,1.3-3.6,1.3-6c0-1.9-0.4-3.5-1.1-4.8
				c-0.7-1.3-1.7-2.4-2.9-3.3s-2.5-1.6-4-2.1s-2.9-1-4.3-1.3c-2.7-0.6-4.7-1.3-6.1-1.9c-1.3-0.6-2-1.6-2-3
				C90,18.7,90.6,17.7,91.9,17.1"/>
			<path class="st0" d="M166.8,25c0.2-2.5,1.3-4.7,3.2-6.3c1.9-1.7,4.3-2.5,7.1-2.5c1.5,0,2.8,0.2,3.9,0.7c1.1,0.5,2,1.2,2.8,2
				c0.7,0.8,1.3,1.8,1.6,2.9c0.3,1,0.5,2.1,0.5,3.3h-19.1V25z M190.5,13.9c-1.7-1.7-3.6-3.1-5.9-3.9c-2.3-0.9-4.8-1.3-7.4-1.3
				c-2.9,0-5.6,0.5-8,1.5c-2.5,1-4.6,2.4-6.4,4.2c-1.8,1.8-3.2,4-4.3,6.5c-1,2.5-1.6,5.4-1.6,8.4c0,3.1,0.5,6,1.6,8.4
				c1,2.5,2.5,4.6,4.3,6.3c1.8,1.7,4,3,6.5,4c2.5,0.9,5.3,1.4,8.2,1.4c7.2,0,12.7-2.6,16.5-7.7l0.1-0.1l-6.6-5.3l-0.1,0.2
				c-1,1.5-2.4,2.7-4,3.6s-3.6,1.3-5.9,1.3c-1.3,0-2.7-0.2-3.9-0.7s-2.4-1.1-3.4-1.9s-1.8-1.8-2.4-2.9c-0.6-1.1-0.9-2.2-1-3.5h28.9
				v-0.2c0.1-0.4,0.1-0.9,0.1-1.3v-1.3c0-3.4-0.5-6.5-1.4-9.1C193.5,17.8,192.2,15.7,190.5,13.9"/>
		</g>
		<g>
			<polygon class="st1" points="108.2,74 98.3,74 98.3,64.1 108.2,64.1 			"/>
			<polygon class="st1" points="92.3,74 82.4,74 82.4,64.1 92.3,64.1 			"/>
			<polygon class="st1" points="66.5,74 66.5,83.9 76.4,83.9 76.4,74 			"/>
			<polygon class="st1" points="50.7,74 50.7,83.9 60.5,83.9 60.5,74 			"/>
			<polygon class="st1" points="34.8,74 34.8,83.9 44.7,83.9 44.7,74 			"/>
			<polygon class="st1" points="12.9,74 3,74 3,64.1 12.9,64.1 			"/>
			<polygon class="st1" points="28.8,74 18.9,74 18.9,64.1 28.8,64.1 			"/>
		</g>
	</g>
</g>
</svg>
